<svg xmlns="http://www.w3.org/2000/svg" version="1.1" xmlns:xlink="http://www.w3.org/1999/xlink" xmlns:svgjs="http://svgjs.dev/svgjs" width="2000" height="1500" viewBox="0 0 2000 1500"><rect width="2000" height="1500" fill="#efefef"></rect><g transform="matrix(0.36900369003690037,0,0,0.36900369003690037,630.0240596837093,248.38709677419354)"><svg viewBox="0 0 183 248" data-background-color="#efefef" preserveAspectRatio="xMidYMid meet" height="2710" width="2000" xmlns="http://www.w3.org/2000/svg" xmlns:xlink="http://www.w3.org/1999/xlink"><g id="tight-bounds" transform="matrix(1,0,0,1,0.24108404052901733,0.4000000000000057)"><svg viewBox="0 0 182.51783191894197 247.2" height="247.2" width="182.51783191894197"><g><svg viewBox="0 0 397.4975999999999 538.3660636711862" height="247.2" width="182.51783191894197"><g><rect width="397.4975999999999" height="13.406464676280958" x="0" y="260.4871505460817" fill="#d94e28" opacity="1" stroke-width="0" stroke="transparent" fill-opacity="1" class="rect-yte-0" data-fill-palette-color="primary" rx="1%" id="yte-0" data-palette-color="#d94e28"></rect></g><g transform="matrix(1,0,0,1,0.9887999999999693,308.98907249011387)"><svg viewBox="0 0 395.52 229.3769911810724" height="229.3769911810724" width="395.52"><g id="textblocktransform"><svg viewBox="0 0 395.52 229.3769911810724" height="229.3769911810724" width="395.52" id="textblock"><g><svg viewBox="0 0 395.52 148.66169059011165" height="148.66169059011165" width="395.52"><g transform="matrix(1,0,0,1,0,0)"><svg width="395.52" viewBox="4.25 -35 94.05 35.35" height="148.66169059011165" data-palette-color="#d94e28"><g class="wordmark-text-0" data-fill-palette-color="primary" id="text-0"><path d="M8.25-27.1L8.25 0 4.25 0 4.25-35 8.65-35 21.65-5.5 34.6-35 38.95-35 38.95 0 34.95 0 34.95-27.1 23.05 0 20.2 0 8.25-27.1ZM60.55-9.15L60.55-35 64.55-35 64.55-9.15Q64.55-6.4 63.35-4.25 62.15-2.1 60.02-0.88 57.9 0.35 55.05 0.35L55.05 0.35Q51.45 0.35 49.15-1.48 46.85-3.3 46-6.5L46-6.5 49.45-7.75Q49.8-6.45 50.47-5.4 51.15-4.35 52.27-3.75 53.4-3.15 55.05-3.15L55.05-3.15Q57-3.15 58.2-4.05 59.4-4.95 59.97-6.33 60.55-7.7 60.55-9.15L60.55-9.15ZM72.85 0L72.85-35 76.85-35 76.85-19.55 78.55-19.55 93-35 98.15-35 82.05-17.8 98.3 0 93 0 78.5-16.05 76.85-16.05 76.85 0 72.85 0Z" fill="#d94e28" data-fill-palette-color="primary"></path></g></svg></g></svg></g><g transform="matrix(1,0,0,1,75.54432,183.75714785786283)"><svg viewBox="0 0 244.43135999999998 45.61984332320956" height="45.61984332320956" width="244.43135999999998"><g transform="matrix(1,0,0,1,0,0)"><svg width="244.43135999999998" viewBox="4.49 -36.01 249.17999999999998 46.51" height="45.61984332320956" data-palette-color="#d94e28"><path d="M9.5-5L22.29-5Q25.78-5 27.66-6.88 29.54-8.76 29.54-12.26L29.54-12.26 29.54-22.75Q29.54-24.46 29.05-25.81 28.56-27.15 27.62-28.09 26.68-29.03 25.34-29.52 24-30 22.29-30L22.29-30 9.5-30 9.5-5ZM22.29 0L4.49 0 4.49-35.01 22.29-35.01Q25.1-35.01 27.36-34.14 29.61-33.28 31.21-31.68 32.81-30.08 33.68-27.81 34.55-25.54 34.55-22.75L34.55-22.75 34.55-12.26Q34.55-9.47 33.68-7.2 32.81-4.93 31.21-3.33 29.61-1.73 27.36-0.87 25.1 0 22.29 0L22.29 0ZM64.06-21.19L64.06-10.55 46.85-10.55 46.85-4.81 64.06-4.81 64.06 0 46.85 0Q45.87 0 44.99-0.38 44.11-0.76 43.47-1.4 42.82-2.05 42.44-2.93 42.06-3.81 42.06-4.81L42.06-4.81 42.06-21.19Q42.06-22.19 42.44-23.07 42.82-23.95 43.47-24.6 44.11-25.24 44.99-25.62 45.87-26 46.85-26L46.85-26 59.25-26Q60.25-26 61.13-25.62 62.01-25.24 62.66-24.6 63.3-23.95 63.68-23.07 64.06-22.19 64.06-21.19L64.06-21.19ZM59.25-21.19L46.85-21.19 46.85-15.36 59.25-15.36 59.25-21.19ZM84.47 0L79.46 0 69.06-26 74.07-26 81.95-5.76 89.86-26 94.87-26 84.47 0ZM121.87-21.19L121.87-10.55 104.66-10.55 104.66-4.81 121.87-4.81 121.87 0 104.66 0Q103.68 0 102.8-0.38 101.92-0.76 101.27-1.4 100.63-2.05 100.25-2.93 99.87-3.81 99.87-4.81L99.87-4.81 99.87-21.19Q99.87-22.19 100.25-23.07 100.63-23.95 101.27-24.6 101.92-25.24 102.8-25.62 103.68-26 104.66-26L104.66-26 117.06-26Q118.06-26 118.94-25.62 119.82-25.24 120.46-24.6 121.11-23.95 121.49-23.07 121.87-22.19 121.87-21.19L121.87-21.19ZM117.06-21.19L104.66-21.19 104.66-15.36 117.06-15.36 117.06-21.19ZM129.87-36.01L134.66-36.01 134.66 0 129.87 0 129.87-36.01ZM165.15-21.19L165.15-4.81Q165.15-3.81 164.77-2.93 164.39-2.05 163.74-1.4 163.1-0.76 162.23-0.38 161.36 0 160.36 0L160.36 0 147.45 0Q146.47 0 145.59-0.38 144.71-0.76 144.07-1.4 143.42-2.05 143.04-2.93 142.66-3.81 142.66-4.81L142.66-4.81 142.66-21.19Q142.66-22.19 143.04-23.07 143.42-23.95 144.07-24.6 144.71-25.24 145.59-25.62 146.47-26 147.45-26L147.45-26 160.36-26Q161.36-26 162.23-25.62 163.1-25.24 163.74-24.6 164.39-23.95 164.77-23.07 165.15-22.19 165.15-21.19L165.15-21.19ZM160.36-21.19L147.45-21.19 147.45-4.81 160.36-4.81 160.36-21.19ZM196.15-21.19L196.15-4.81Q196.15-3.81 195.77-2.93 195.4-2.05 194.75-1.4 194.1-0.76 193.22-0.38 192.34 0 191.34 0L191.34 0 177.94 0 177.94 10.5 173.15 10.5 173.15-26 177.94-26 177.94-21.61Q178.01-22.53 178.43-23.33 178.84-24.12 179.48-24.72 180.11-25.32 180.95-25.66 181.8-26 182.75-26L182.75-26 191.34-26Q192.34-26 193.22-25.62 194.1-25.24 194.75-24.6 195.4-23.95 195.77-23.07 196.15-22.19 196.15-21.19L196.15-21.19ZM177.94-4.81L191.34-4.81 191.34-21.19 177.94-21.19 177.94-4.81ZM226.15-21.19L226.15-10.55 208.94-10.55 208.94-4.81 226.15-4.81 226.15 0 208.94 0Q207.97 0 207.09-0.38 206.21-0.76 205.56-1.4 204.91-2.05 204.54-2.93 204.16-3.81 204.16-4.81L204.16-4.81 204.16-21.19Q204.16-22.19 204.54-23.07 204.91-23.95 205.56-24.6 206.21-25.24 207.09-25.62 207.97-26 208.94-26L208.94-26 221.34-26Q222.35-26 223.22-25.62 224.1-25.24 224.75-24.6 225.4-23.95 225.78-23.07 226.15-22.19 226.15-21.19L226.15-21.19ZM221.34-21.19L208.94-21.19 208.94-15.36 221.34-15.36 221.34-21.19ZM248.86-21.19L238.94-21.19 238.94 0 234.16 0 234.16-26 238.94-26 238.94-21.41Q238.99-22.36 239.38-23.21 239.77-24.05 240.42-24.67 241.07-25.29 241.92-25.65 242.78-26 243.75-26L243.75-26 248.86-26Q249.86-26 250.72-25.62 251.59-25.24 252.25-24.6 252.91-23.95 253.29-23.07 253.67-22.19 253.67-21.19L253.67-21.19 253.67-16.8 248.86-16.8 248.86-21.19Z" opacity="1" transform="matrix(1,0,0,1,0,0)" fill="#d94e28" class="slogan-text-1" data-fill-palette-color="secondary" id="text-1"></path></svg></g></svg></g></svg></g></svg></g><g transform="matrix(1,0,0,1,76.53311999999997,0)"><svg viewBox="0 0 244.43135999999998 225.39169327833048" height="225.39169327833048" width="244.43135999999998"><g><svg xmlns="http://www.w3.org/2000/svg" xmlns:xlink="http://www.w3.org/1999/xlink" version="1.1" x="0" y="0" viewBox="50 66 412.1 380" style="enable-background:new 0 0 512 512;" xml:space="preserve" height="225.39169327833048" width="244.43135999999998" class="icon-icon-0" data-fill-palette-color="accent" id="icon-0"><g fill="#f9744c" data-fill-palette-color="accent"><path d="M50 326.9C50 339.7 60.7 350 73.6 350H438.5C451.3 350 462.1 339.7 462.1 326.9V306H50z" fill="#f9744c" data-fill-palette-color="accent"></path><path d="M263.2 179.2C263.2 174.7 259.5 171 255 171S246.8 174.7 246.8 179.2 250.5 187.4 255 187.4C259.6 187.4 263.2 183.7 263.2 179.2" fill="#f9744c" data-fill-palette-color="accent"></path><path d="M255.1 116.1C250.6 116.1 246.9 119.8 246.9 124.3S250.6 132.5 255.1 132.5 263.3 128.8 263.3 124.3C263.2 119.8 259.6 116.1 255.1 116.1" fill="#f9744c" data-fill-palette-color="accent"></path><path d="M255.1 227.7C250.6 227.7 246.9 231.4 246.9 235.9S250.6 244.1 255.1 244.1 263.3 240.4 263.3 235.9C263.2 231.4 259.6 227.7 255.1 227.7" fill="#f9744c" data-fill-palette-color="accent"></path><path d="M200.2 171C195.7 171 192 174.7 192 179.2S195.7 187.4 200.2 187.4 208.4 183.7 208.4 179.2C208.4 174.6 204.7 171 200.2 171" fill="#f9744c" data-fill-palette-color="accent"></path><path d="M200.2 132.5C204.7 132.5 208.4 128.8 208.4 124.3S204.7 116.1 200.2 116.1 192 119.8 192 124.3 195.7 132.5 200.2 132.5" fill="#f9744c" data-fill-palette-color="accent"></path><path d="M200.2 227.7C195.7 227.7 192 231.4 192 235.9S195.7 244.1 200.2 244.1 208.4 240.4 208.4 235.9 204.7 227.7 200.2 227.7" fill="#f9744c" data-fill-palette-color="accent"></path><path d="M438.4 66H73.6C60.7 66 50.2 76.4 50 89.2V294H462V89.2C461.8 76.4 451.3 66 438.4 66M291.6 124.3C291.6 113.2 300.6 104.1 311.8 104.1S332 113.1 332 124.3 323 144.5 311.8 144.5 291.6 135.5 291.6 124.3M200.2 256.1C189 256.1 180 247.1 180 235.9S189 215.7 200.2 215.7 220.4 224.7 220.4 235.9 211.3 256.1 200.2 256.1M275.2 235.9C275.2 247.1 266.2 256.1 255.1 256.2 243.9 256.2 234.9 247.2 234.8 236.1 234.8 234.3 235 232.5 235.5 230.8L203.8 199C192.8 201 182.3 193.8 180.2 182.8 180 181.6 179.9 180.4 179.9 179.1 179.9 170.4 186 163 193 160.2V143.2C186 140.4 179.9 133 179.9 124.3 179.9 113.2 188.9 104.1 200.1 104.1S220.3 113.1 220.3 124.3C220.4 133.6 214.1 141.6 205.1 143.8V159.6C215.9 162.3 222.5 173.3 219.8 184.1 219 187.5 217.3 190.5 214.9 193L242.3 220.3C244.6 218.4 247.3 217 250.2 216.3V198.6C239.4 195.8 232.9 184.8 235.7 174S249.5 156.7 260.3 159.5 277.6 173.3 274.8 184.1C273.1 190.5 268.4 195.7 262.2 198V217C269.9 219.9 275.2 227.5 275.2 235.9M319 198.1V217C326 219.8 332.1 227.2 332.1 235.9 332.1 247 323.1 256.1 311.9 256.1 300.8 256.1 291.7 247.1 291.7 235.9 291.6 226.6 297.9 218.6 306.9 216.4V198.7C296.1 196 289.5 185 292.3 174.2 292.6 172.9 293.1 171.6 293.7 170.3L265.2 141.7C255.5 147.4 243.1 144.2 237.4 134.6 231.7 124.9 234.9 112.5 244.5 106.8 254.2 101.1 266.6 104.3 272.3 113.9 275.7 119.7 276.1 126.8 273.2 132.8L301.8 161.6C304.8 159.9 308.2 159 311.7 159 322.9 159 331.9 168 332 179.2 332.1 187.8 326 195.3 319 198.1" fill="#f9744c" data-fill-palette-color="accent"></path><path d="M311.8 132.5C316.3 132.5 320 128.8 320 124.3S316.3 116.1 311.8 116.1 303.6 119.8 303.6 124.3 307.3 132.5 311.8 132.5" fill="#f9744c" data-fill-palette-color="accent"></path><path d="M311.8 171C307.3 171 303.6 174.7 303.6 179.2S307.3 187.4 311.8 187.4 320 183.7 320 179.2C320 174.6 316.3 171 311.8 171" fill="#f9744c" data-fill-palette-color="accent"></path><path d="M311.8 227.7C307.3 227.7 303.6 231.4 303.6 235.9S307.3 244.1 311.8 244.1 320 240.4 320 235.9 316.3 227.7 311.8 227.7" fill="#f9744c" data-fill-palette-color="accent"></path><path d="M351.2 434H318V356H194V434H166.1C162.8 434 160.1 436.7 160.1 440S162.8 446 166.1 446H351.1C354.4 446 357.1 443.3 357.1 440S354.5 434 351.2 434" fill="#f9744c" data-fill-palette-color="accent"></path></g></svg></g></svg></g><g></g></svg></g><defs></defs></svg><rect width="182.51783191894197" height="247.2" fill="none" stroke="none" visibility="hidden"></rect></g></svg></g></svg>